<svg width="16" height="18" viewBox="0 0 16 18" fill="none" xmlns="http://www.w3.org/2000/svg">
<path d="M13.6944 2.19209H11.5362V1.66516C11.5386 1.22204 11.3634 0.796544 11.0497 0.483514C10.7361 0.170649 10.3099 -0.00356726 9.86679 5.53875e-05H6.1236C5.68049 -0.00356726 5.25433 0.170649 4.94064 0.483514C4.62696 0.796544 4.45175 1.22204 4.45422 1.66516V2.19209H2.29595C1.48711 2.19225 0.803912 2.79213 0.699184 3.59405C0.594621 4.39614 1.10113 5.15129 1.8828 5.35877V15.7447C1.8828 16.3586 2.1079 16.9351 2.50112 17.3487C2.89253 17.7635 3.43725 17.999 4.00732 18H11.9831C12.5533 17.999 13.098 17.7635 13.4893 17.3487C13.8825 16.9351 14.1076 16.3586 14.1076 15.7447V5.35877C14.8893 5.15129 15.3958 4.39614 15.2912 3.59405C15.1865 2.79213 14.5033 2.19225 13.6944 2.19209ZM5.29731 1.66516C5.29451 1.44566 5.3808 1.23439 5.53657 1.07944C5.69218 0.924489 5.90394 0.839357 6.1236 0.843144H9.86679C10.0864 0.839357 10.2982 0.924489 10.4538 1.07944C10.6096 1.23423 10.6959 1.44566 10.6931 1.66516V2.19209H5.29731V1.66516ZM11.9831 17.1569H4.00732C3.28658 17.1569 2.72589 16.5378 2.72589 15.7447V5.39582H13.2645V15.7447C13.2645 16.5378 12.7038 17.1569 11.9831 17.1569ZM13.6944 4.55273H2.29595C1.87687 4.55273 1.53717 4.21303 1.53717 3.79395C1.53717 3.37488 1.87687 3.03517 2.29595 3.03517H13.6944C14.1135 3.03517 14.4532 3.37488 14.4532 3.79395C14.4532 4.21303 14.1135 4.55273 13.6944 4.55273Z" fill="#8F8F8F"/>
<path d="M7.99576 6.52148C7.76292 6.52148 7.57422 6.71019 7.57422 6.94303V14.9102C7.57422 15.1429 7.76292 15.3318 7.99576 15.3318C8.22859 15.3318 8.4173 15.1429 8.4173 14.9102V6.94303C8.4173 6.71019 8.22859 6.52148 7.99576 6.52148Z" fill="#8F8F8F"/>
</svg>
