<svg width="22" height="22" viewBox="0 0 22 22" fill="none" xmlns="http://www.w3.org/2000/svg">
<path d="M14.9951 15.9654L19.6463 20.6166C19.7786 20.749 19.955 20.8171 20.1315 20.8171C20.3079 20.8171 20.4843 20.749 20.6166 20.6166C20.8853 20.348 20.8853 19.9109 20.6166 19.6423L15.9654 14.9911C17.2084 13.5275 17.9582 11.635 17.9582 9.57C17.9582 4.94283 14.1931 1.18176 9.56999 1.18176C4.94684 1.18176 1.18176 4.94287 1.18176 9.57008C1.18176 14.1973 4.94684 17.9583 9.57401 17.9583C11.639 17.9583 13.5316 17.2084 14.9951 15.9654ZM2.55708 9.57008C2.55708 5.70074 5.70467 2.55716 9.56999 2.55716C13.4353 2.55716 16.5829 5.70475 16.5829 9.57008C16.5829 13.4354 13.4353 16.583 9.56999 16.583C5.70467 16.583 2.55708 13.4353 2.55708 9.57008Z" fill="#434343" stroke="#434343" stroke-width="0.5"/>
</svg>
