<?xml version="1.0" encoding="utf-8"?><svg viewBox="0 0 36 22" xmlns="http://www.w3.org/2000/svg" xmlns:xlink="http://www.w3.org/1999/xlink"><style>:root>svg{display:none}:root>svg:target{display:block}</style><svg fill="none" viewBox="0 0 36 16" id="burger" xmlns="http://www.w3.org/2000/svg"><path stroke="#434343" stroke-width="2" d="M0 1h36M0 7.968h36M0 14.935h17.333"/></svg><svg fill="none" viewBox="0 0 23 22" id="cart" xmlns="http://www.w3.org/2000/svg"><path d="M21.825 3.605a.612.612 0 00-.476-.226H5.13l-.454-1.947a.608.608 0 00-.594-.468h-2.64c-.337 0-.61.27-.61.604 0 .333.273.603.61.603h2.156l3.078 13.213c.064.274.31.468.594.468h12.21c.336 0 .608-.27.608-.603a.607.607 0 00-.609-.604H7.756l-.47-2.012h12.235a.608.608 0 00.594-.47l1.828-8.048a.6.6 0 00-.118-.51zm-2.792 7.821H7.006l-1.594-6.84h15.175l-1.554 6.84zM9.77 16.657c-1.231 0-2.234.993-2.234 2.213 0 1.22 1.003 2.213 2.235 2.213s2.234-.992 2.234-2.213c0-1.22-1.002-2.213-2.234-2.213zm0 3.22c-.56 0-1.015-.452-1.015-1.007 0-.555.456-1.006 1.016-1.006s1.015.451 1.015 1.006c0 .555-.455 1.006-1.015 1.006zM17.083 16.657c-1.232 0-2.234.993-2.234 2.213 0 1.22 1.002 2.213 2.234 2.213s2.235-.992 2.235-2.213c0-1.22-1.003-2.213-2.235-2.213zm0 3.22c-.56 0-1.015-.452-1.015-1.007 0-.555.455-1.006 1.015-1.006.56 0 1.016.451 1.016 1.006 0 .555-.456 1.006-1.016 1.006z" fill="#434343"/><path d="M21.825 3.605a.612.612 0 00-.476-.226H5.13l-.454-1.947a.608.608 0 00-.594-.468h-2.64c-.337 0-.61.27-.61.604 0 .333.273.603.61.603h2.156l3.078 13.213c.064.274.31.468.594.468h12.21c.336 0 .608-.27.608-.603a.607.607 0 00-.609-.604H7.756l-.47-2.012h12.235a.608.608 0 00.594-.47l1.828-8.048a.6.6 0 00-.118-.51zm-2.792 7.821H7.006l-1.594-6.84h15.175l-1.554 6.84zM9.77 16.657c-1.231 0-2.234.993-2.234 2.213 0 1.22 1.003 2.213 2.235 2.213s2.234-.992 2.234-2.213c0-1.22-1.002-2.213-2.234-2.213zm0 3.22c-.56 0-1.015-.452-1.015-1.007 0-.555.456-1.006 1.016-1.006s1.015.451 1.015 1.006c0 .555-.455 1.006-1.015 1.006zM17.083 16.657c-1.232 0-2.234.993-2.234 2.213 0 1.22 1.002 2.213 2.234 2.213s2.235-.992 2.235-2.213c0-1.22-1.003-2.213-2.235-2.213zm0 3.22c-.56 0-1.015-.452-1.015-1.007 0-.555.455-1.006 1.015-1.006.56 0 1.016.451 1.016 1.006 0 .555-.456 1.006-1.016 1.006z" stroke="#434343" stroke-width=".5"/></svg><svg fill="none" viewBox="0 0 27 22" id="favorite" xmlns="http://www.w3.org/2000/svg"><path d="M12.343 20.564c.31.28.729.436 1.167.436.434 0 .862-.16 1.168-.436l9.16-8.243C25.23 11.07 25.995 9.404 26 7.638c0-1.771-.765-3.436-2.156-4.688-1.392-1.253-3.238-1.94-5.205-1.94-1.932 0-3.752 1.664-5.134 2.875C12.118 2.67 10.293 1 8.356 1c-1.962 0-3.808.688-5.2 1.936C1.765 4.188 1 5.853 1 7.624c0 1.766.77 3.431 2.162 4.683l9.18 8.257zm-8.3-16.83c1.153-1.037 2.687-1.61 4.318-1.61 1.632 0 3.171 1.573 4.328 2.615l.378.339a.662.662 0 00.443.165c.163 0 .326-.06.444-.165l.367-.33c1.157-1.042 2.691-2.615 4.328-2.615 1.631 0 3.166.573 4.318 1.61 1.157 1.041 1.79 2.422 1.79 3.89s-.638 2.849-1.795 3.89l-9.166 8.248a.458.458 0 01-.571 0l-9.176-8.257c-1.158-1.041-1.795-2.422-1.795-3.89s.637-2.849 1.79-3.89z" fill="#434343" stroke="#434343" stroke-width=".5"/></svg><svg fill="none" viewBox="0 0 14 15" id="header-phone" xmlns="http://www.w3.org/2000/svg"><path d="M13.97 11.622c-.04-.128-.291-.316-.755-.564a22.73 22.73 0 00-.537-.32 48.59 48.59 0 01-.632-.373c-.189-.114-.366-.224-.532-.33a13.27 13.27 0 00-.248-.187 2.768 2.768 0 00-.353-.229.616.616 0 00-.284-.074c-.132 0-.298.101-.497.303a5.096 5.096 0 00-.546.661 6.316 6.316 0 01-.527.66c-.186.203-.339.304-.458.304a.637.637 0 01-.224-.053 2.245 2.245 0 01-.204-.09 3.655 3.655 0 01-.238-.15 6.03 6.03 0 00-.189-.122 10.534 10.534 0 01-2.337-1.854c-.65-.696-1.226-1.53-1.73-2.504a6.26 6.26 0 00-.114-.202 3.917 3.917 0 01-.14-.256 2.403 2.403 0 01-.084-.218.765.765 0 01-.05-.24c0-.127.095-.29.284-.49.189-.199.394-.387.616-.564.222-.178.428-.373.617-.586.189-.213.283-.39.283-.533 0-.099-.023-.2-.07-.303a3.011 3.011 0 00-.213-.379l-.174-.266c-.1-.177-.202-.367-.309-.57a55.131 55.131 0 01-.348-.676c-.126-.249-.225-.44-.298-.575-.232-.497-.407-.767-.527-.81A.523.523 0 002.943 0c-.179 0-.412.035-.7.107A3.748 3.748 0 001.56.33C1.23.48.878.913.507 1.63.17 2.297 0 2.958 0 3.61c0 .192.012.378.035.56.023.18.064.385.124.612.06.227.108.396.144.506l.204.591c.1.284.16.458.179.522a9.97 9.97 0 00.825 1.865c.524.909 1.238 1.848 2.143 2.818.905.969 1.781 1.734 2.63 2.295.51.341 1.09.636 1.74.885.06.02.222.085.487.191.266.107.45.18.552.219.103.039.26.09.472.154.213.064.403.109.572.134.17.024.343.037.522.037.61 0 1.227-.181 1.85-.543.67-.398 1.074-.774 1.213-1.13a4.42 4.42 0 00.208-.73c.067-.308.1-.559.1-.75 0-.1-.01-.175-.03-.225z" fill="#434343"/></svg><svg fill="none" viewBox="0 0 22 21" id="person" xmlns="http://www.w3.org/2000/svg"><path d="M21 19.605v-1.064a3.496 3.496 0 00-1.42-2.785c-2.065-1.53-4.17-2.598-4.908-2.954v-1.215c.15-.32.274-.667.369-1.043.548-.188.849-.957 1.05-1.636.27-.905.24-1.539-.077-1.89.334-1.739.184-3.02-.442-3.809a1.966 1.966 0 00-.973-.667 3.539 3.539 0 00-1.187-.99C12.76 1.184 12.027 1 11.22 1c-.146 0-.292.008-.42.016-.36.017-.716.082-1.068.193-.004 0-.008.004-.013.004-.386.127-.763.31-1.127.548a5.891 5.891 0 00-1.128.892c-.647.634-1.076 1.35-1.26 2.115a3.8 3.8 0 00-.043 1.898.977.977 0 00-.206.188c-.296.372-.309.957-.047 1.845.18.614.42 1.24.827 1.522.12.589.322 1.125.592 1.6v.985c-.737.356-2.842 1.42-4.909 2.954A3.49 3.49 0 001 18.546v1.063C1 20.38 1.656 21 2.458 21h17.084c.802 0 1.458-.626 1.458-1.395zm-18.954 0v-1.064c0-.777.377-1.521 1.012-1.992a30.864 30.864 0 014.93-2.937c.24-.11.39-.34.39-.597v-1.33a.485.485 0 00-.073-.253 4.387 4.387 0 01-.578-1.633.515.515 0 00-.39-.409c-.056-.061-.215-.282-.416-.965-.168-.565-.155-.827-.138-.92a.551.551 0 00.442-.193.479.479 0 00.082-.474 2.886 2.886 0 01-.078-1.825c.146-.597.48-1.154 1-1.66.278-.287.6-.537.942-.745.005-.004.013-.008.018-.013.287-.192.587-.335.883-.433.004 0 .008-.004.008-.004.253-.082.515-.127.79-.14.75-.06 1.423.074 2.019.406.651.343.917.793.917.793a.48.48 0 00.416.266c.013 0 .291.041.532.364.252.344.613 1.227.162 3.29a.495.495 0 00.292.556c.021.073.056.323-.129.945-.163.548-.296.797-.373.908a.525.525 0 00-.295.032.509.509 0 00-.313.373c-.09.49-.236.932-.425 1.309a.488.488 0 00-.051.217v1.538c0 .257.15.482.39.597.433.2 2.7 1.293 4.926 2.937a2.494 2.494 0 011.012 1.992v1.064a.4.4 0 01-.408.389H2.458a.397.397 0 01-.412-.389z" fill="#434343" stroke="#434343" stroke-width=".5"/></svg><svg fill="none" viewBox="0 0 20 20" id="plus" xmlns="http://www.w3.org/2000/svg"><path d="M19 9.571h-8.571V1H9.57v8.571H1v.858h8.571V19h.858v-8.571H19V9.57z" fill="#434343" stroke="#434343" stroke-width=".5"/></svg><svg fill="none" viewBox="0 0 22 22" id="search" xmlns="http://www.w3.org/2000/svg"><path d="M14.995 15.965l4.651 4.652a.686.686 0 00.97 0 .69.69 0 000-.975l-4.65-4.65a8.347 8.347 0 001.992-5.422c0-4.627-3.765-8.388-8.388-8.388-4.623 0-8.388 3.76-8.388 8.388 0 4.627 3.765 8.388 8.392 8.388 2.065 0 3.958-.75 5.421-1.993zM2.557 9.57A7.02 7.02 0 019.57 2.557c3.865 0 7.013 3.148 7.013 7.013 0 3.865-3.148 7.013-7.013 7.013-3.865 0-7.013-3.148-7.013-7.013z" fill="#434343" stroke="#434343" stroke-width=".5"/></svg></svg>